HIERARCHY
ROOT Hips
{
    OFFSET 0.000000 0.000000 0.000000
    CHANNELS 6 Xposition Yposition Zposition Zrotation Xrotation Yrotation
    JOINT Spine
    {
        OFFSET -0.000000 7.236184 0.000000
        CHANNELS 3 Zrotation Xrotation Yrotation
        JOINT Spine1
        {
            OFFSET -0.000000 20.420147 0.000000
            CHANNELS 3 Zrotation Xrotation Yrotation
            JOINT Neck
            {
                OFFSET -0.000000 20.336288 1.848754
                CHANNELS 3 Zrotation Xrotation Yrotation
                JOINT Head
                {
                    OFFSET -0.000000 12.354461 -1.764923
                    CHANNELS 3 Zrotation Xrotation Yrotation
                    End Site
                    {
                        OFFSET -0.000000 22.061537 0.000000
                    }
                }
            }
            JOINT LeftShoulder
            {
                OFFSET 3.573296 18.396038 -0.314103
                CHANNELS 3 Zrotation Xrotation Yrotation
                JOINT LeftArm
                {
                    OFFSET 10.880760 0.000000 0.000000
                    CHANNELS 3 Zrotation Xrotation Yrotation
                    JOINT LeftForeArm
                    {
                        OFFSET 27.185530 0.000000 0.000000
                        CHANNELS 3 Zrotation Xrotation Yrotation
                        JOINT LeftHand
                        {
                            OFFSET 27.825975 0.000000 0.000000
                            CHANNELS 3 Zrotation Xrotation Yrotation
                            End Site
                            {
                                OFFSET 13.236923 0.000000 0.000000
                            }
                        }
                    }
                }
            }
            JOINT RightShoulder
            {
                OFFSET -3.474926 18.396038 -0.314103
                CHANNELS 3 Zrotation Xrotation Yrotation
                JOINT RightArm
                {
                    OFFSET -10.880760 0.000000 0.000000
                    CHANNELS 3 Zrotation Xrotation Yrotation
                    JOINT RightForeArm
                    {
                        OFFSET -27.185530 0.000000 0.000000
                        CHANNELS 3 Zrotation Xrotation Yrotation
                        JOINT RightHand
                        {
                            OFFSET -27.825975 0.000000 0.000000
                            CHANNELS 3 Zrotation Xrotation Yrotation
                            End Site
                            {
                                OFFSET -13.236923 0.000000 0.000000
                            }
                        }
                    }
                }
            }
        }
    }
    JOINT LeftUpLeg
    {
        OFFSET 8.824615 0.000000 0.000000
        CHANNELS 3 Zrotation Xrotation Yrotation
        JOINT LeftLeg
        {
            OFFSET -0.000000 -35.111282 0.000000
            CHANNELS 3 Zrotation Xrotation Yrotation
            JOINT LeftFoot
            {
                OFFSET -0.000000 -42.324711 0.000000
                CHANNELS 3 Zrotation Xrotation Yrotation
                JOINT LeftToeBase
                {
                    OFFSET -0.000000 -5.735999 13.236923
                    CHANNELS 3 Zrotation Xrotation Yrotation
                    End Site
                    {
                        OFFSET -0.000000 0.000000 3.529846
                    }
                }
            }
        }
    }
    JOINT RightUpLeg
    {
        OFFSET -8.824615 0.000000 0.000000
        CHANNELS 3 Zrotation Xrotation Yrotation
        JOINT RightLeg
        {
            OFFSET -0.000000 -35.111282 0.000000
            CHANNELS 3 Zrotation Xrotation Yrotation
            JOINT RightFoot
            {
                OFFSET -0.000000 -42.324711 0.000000
                CHANNELS 3 Zrotation Xrotation Yrotation
                JOINT RightToeBase
                {
                    OFFSET -0.000000 -5.735999 13.236923
                    CHANNELS 3 Zrotation Xrotation Yrotation
                    End Site
                    {
                        OFFSET -0.000000 0.000000 3.529846
                    }
                }
            }
        }
    }
}
MOTION
Frames:    10
Frame Time:    0.008333
-1.636577    82.133011    96.746025    -0.182727    -9.753519    -174.814835    -2.286073    -16.619438    -0.257324    0.457092    8.659168    0.042776    2.482540    5.678689    -2.554497    6.490806    -13.975949    -1.205684    0.898454    15.919811    -1.975941    -33.435627    42.976372    -54.768269    -0.533333    -0.347395    -13.815261    6.332392    -0.313321    1.786224    4.926803    19.205799    -4.601974    34.122887    40.640537    47.934074    -9.379285    -5.614178    21.414150    -17.386213    -4.107669    1.736575    8.375166    -8.458511    -1.697422    -1.149317    8.320105    -0.474599    -7.816298    -7.794358    -9.950746    0.246889    0.438855    -0.273453    -3.586841    -4.456145    -0.897680    2.956303    4.901659    -0.523728    -0.583556    -7.012029    -9.667682    -2.644145    0.641047    2.857266    
-1.598256    82.138435    96.779289    -0.186394    -9.749583    -174.812561    -2.252142    -16.599092    -0.244064    0.393376    8.622235    0.055607    2.518270    5.641326    -2.518117    6.384567    -13.977462    -1.199881    1.052241    15.633067    -2.225477    -33.027462    42.556141    -55.397797    -0.263087    -0.246545    -14.097569    6.514091    -0.172270    1.875838    4.769856    18.910505    -4.368608    34.009502    39.954193    48.179878    -9.639034    -5.427314    21.813623    -17.571371    -3.830092    1.678450    8.394996    -8.491333    -1.665568    -1.141558    8.334362    -0.480096    -7.866580    -7.759547    -9.973856    0.259123    0.442098    -0.287001    -3.564981    -4.488594    -0.897257    2.956585    4.955558    -0.117519    -0.688902    -7.014461    -10.075829    -2.641312    0.623047    2.854275    
-1.561597    82.143608    96.811035    -0.189923    -9.746017    -174.809921    -2.219438    -16.579863    -0.231162    0.331805    8.586887    0.067479    2.552557    5.605955    -2.483526    6.283466    -13.979650    -1.194365    1.197729    15.358652    -2.463884    -32.654392    42.143177    -55.984840    0.005935    -0.154628    -14.358023    6.697679    -0.040297    1.939436    4.621235    18.627398    -4.145505    33.910774    39.294243    48.410118    -9.894815    -5.257632    22.187708    -17.745974    -3.573851    1.641984    8.413848    -8.522956    -1.635399    -1.133973    8.347961    -0.484822    -7.915136    -7.725999    -9.996588    0.270998    0.445292    -0.300152    -3.544134    -4.519973    -0.897211    2.956629    5.006912    0.262467    -0.787974    -7.015954    -10.457840    -2.638470    0.606129    2.851271    
-1.525168    82.148705    96.842422    -0.193506    -9.742721    -174.806442    -2.186564    -16.561050    -0.218857    0.269451    8.551712    0.079540    2.586687    5.570777    -2.449585    6.184011    -13.982231    -1.189080    1.340659    15.085842    -2.700435    -32.303604    41.722324    -56.551334    0.283811    -0.066072    -14.609905    6.893825    0.087590    1.982873    4.474926    18.345007    -3.923784    33.819981    38.639832    48.634636    -10.156869    -5.099808    22.554131    -17.916683    -3.329320    1.620556    8.432499    -8.554543    -1.606229    -1.126625    8.361022    -0.488325    -7.963744    -7.692048    -10.020187    0.283203    0.448280    -0.313668    -3.523556    -4.551710    -0.897902    2.956449    5.057680    0.625309    -0.883787    -7.016987    -10.822987    -2.635379    0.589977    2.847993    
-1.488855    82.153717    96.873520    -0.197200    -9.739995    -174.801697    -2.153347    -16.542910    -0.206546    0.205835    8.516561    0.091124    2.620609    5.535898    -2.416383    6.086562    -13.986087    -1.184001    1.481041    14.814348    -2.935642    -31.975557    41.292259    -57.097996    0.570317    0.016814    -14.856461    7.106279    0.215652    2.007987    4.330190    18.062824    -3.702822    33.734470    37.992691    48.855331    -10.426404    -4.954780    22.916536    -18.083567    -3.096241    1.610176    8.450859    -8.586671    -1.577656    -1.119287    8.373730    -0.490559    -8.013110    -7.657360    -10.045542    0.295912    0.451679    -0.327742    -3.503294    -4.584460    -0.899743    2.956042    5.108290    0.966769    -0.975814    -7.017991    -11.167129    -2.631972    0.575372    2.844367    
-1.452888    82.158569    96.904076    -0.200939    -9.738100    -174.795273    -2.119831    -16.525631    -0.195098    0.140788    8.481445    0.102830    2.654591    5.501197    -2.384249    5.991410    -13.990976    -1.179401    1.618451    14.546444    -3.167597    -31.673916    40.856594    -57.621281    0.864072    0.096459    -15.097908    7.335623    0.340418    2.016859    4.188038    17.782959    -3.484201    33.652924    37.360298    49.071426    -10.701820    -4.824453    23.274872    -18.245716    -2.876298    1.607181    8.468815    -8.619551    -1.549575    -1.111937    8.386188    -0.492373    -8.062970    -7.622178    -10.072239    0.309148    0.454843    -0.342400    -3.483498    -4.618402    -0.903008    2.955477    5.158579    1.280571    -1.063126    -7.019291    -11.484181    -2.628252    0.562258    2.840399    
-1.416831    82.163261    96.934341    -0.204640    -9.737118    -174.786682    -2.085718    -16.508986    -0.183506    0.074044    8.445770    0.113769    2.688439    5.466666    -2.353068    5.898166    -13.998169    -1.175162    1.753987    14.279284    -3.398989    -31.396292    40.411758    -58.126297    1.168392    0.173068    -15.339314    7.585560    0.463865    2.011652    4.046370    17.502884    -3.265844    33.572906    36.738686    49.286015    -10.986774    -4.708243    23.635469    -18.404974    -2.666926    1.608034    8.486781    -8.653785    -1.521154    -1.104556    8.398735    -0.494361    -8.114226    -7.586122    -10.100952    0.323198    0.458077    -0.357959    -3.463726    -4.654334    -0.908091    2.954591    5.209458    1.566276    -1.146534    -7.021122    -11.773835    -2.624138    0.550699    2.835997    
-1.381297    82.167709    96.963768    -0.208319    -9.737377    -174.775772    -2.051828    -16.493517    -0.172688    0.006692    8.409920    0.124398    2.721493    5.432916    -2.323507    5.808673    -14.007610    -1.171465    1.885373    14.018353    -3.625610    -31.147554    39.966450    -58.605045    1.477489    0.245067    -15.577847    7.851611    0.584041    1.994139    3.907626    17.228167    -3.051869    33.494591    36.140949    49.495571    -11.276440    -4.608607    23.993889    -18.558960    -2.471528    1.610122    8.504264    -8.689268    -1.492166    -1.097091    8.411316    -0.497379    -8.166030    -7.549743    -10.131233    0.337943    0.461463    -0.374288    -3.444601    -4.691984    -0.914609    2.953798    5.260244    1.818032    -1.225088    -7.023679    -12.030846    -2.619799    0.541617    2.831343    
-1.345510    82.171967    96.992867    -0.211983    -9.738871    -174.761978    -2.017806    -16.478523    -0.162110    -0.061943    8.372661    0.134509    2.754520    5.399424    -2.295004    5.720346    -14.020466    -1.168436    2.014971    13.758926    -3.852034    -30.922169    39.513340    -59.067753    1.797430    0.313611    -15.820158    8.138638    0.703289    1.966274    3.768648    16.954355    -2.838575    33.415031    35.557270    49.704987    -11.576847    -4.524048    24.359324    -18.710917    -2.285905    1.610872    8.521811    -8.726877    -1.461373    -1.089360    8.424534    -0.502592    -8.219650    -7.512487    -10.163551    0.353816    0.464806    -0.391866    -3.425694    -4.732254    -0.922248    2.953239    5.312333    2.040317    -1.300747    -7.027165    -12.260554    -2.615074    0.534673    2.826263    
-1.309914    82.175949    97.021080    -0.215590    -9.741505    -174.745270    -1.984681    -16.464064    -0.152258    -0.130133    8.334309    0.144215    2.786489    5.366874    -2.268152    5.634871    -14.037276    -1.166098    2.140967    13.505303    -4.074963    -30.722965    39.060955    -59.508598    2.123475    0.377573    -16.063858    8.441553    0.819720    1.930495    3.631179    16.686359    -2.629761    33.334667    34.998219    49.911297    -11.883985    -4.456285    24.727781    -18.858507    -2.112631    1.608546    8.539182    -8.766067    -1.428478    -1.081405    8.438344    -0.510868    -8.274529    -7.474937    -10.197552    0.370593    0.467893    -0.410444    -3.407093    -4.774637    -0.930712    2.952667    5.365734    2.230511    -1.372688    -7.032113    -12.460631    -2.610062    0.529697    2.820866    
